<?xml version="1.0" encoding="UTF-8"?>
<svg id="Layer_1" xmlns="http://www.w3.org/2000/svg" xmlns:xlink="http://www.w3.org/1999/xlink" version="1.1" viewBox="0 0 40.8 26.2">
  <!-- Generator: Adobe Illustrator 29.3.1, SVG Export Plug-In . SVG Version: 2.1.0 Build 151)  -->
  <defs>
    <style>
      .st0 {
        fill: #231f20;
      }

      .st1 {
        fill: #fff200;
      }
    </style>
  </defs>
  <g>
    <path class="st1" d="M3.2,24.8c-.9,0-1.6-.6-1.6-1.4v-6.3c0-.8.7-1.4,1.6-1.4h4.1c.9,0,1.6.6,1.6,1.4v6.3c0,.8-.7,1.4-1.6,1.4H3.2Z"/>
    <path class="st0" d="M7.3,16.1c.6,0,1.1.4,1.1.9v6.3c0,.5-.5.9-1.1.9H3.2c-.6,0-1.1-.4-1.1-.9v-6.3c0-.5.5-.9,1.1-.9h4.1M7.3,15.1H3.2c-1.2,0-2.1.9-2.1,1.9v6.3c0,1.1,1,1.9,2.1,1.9h4.1c1.2,0,2.1-.9,2.1-1.9v-6.3c0-1.1-1-1.9-2.1-1.9h0Z"/>
  </g>
  <g>
    <path class="st1" d="M13.2,24.8c-.9,0-1.6-.6-1.6-1.4v-11c0-.8.7-1.4,1.6-1.4h4.1c.9,0,1.6.6,1.6,1.4v11c0,.8-.7,1.4-1.6,1.4h-4.1Z"/>
    <path class="st0" d="M17.3,11.5c.6,0,1.1.4,1.1.9v11c0,.5-.5.9-1.1.9h-4.1c-.6,0-1.1-.4-1.1-.9v-11c0-.5.5-.9,1.1-.9h4.1M17.3,10.5h-4.1c-1.2,0-2.1.9-2.1,1.9v11c0,1.1,1,1.9,2.1,1.9h4.1c1.2,0,2.1-.9,2.1-1.9v-11c0-1.1-1-1.9-2.1-1.9h0Z"/>
  </g>
  <g>
    <path class="st1" d="M23.2,24.8c-.9,0-1.6-.6-1.6-1.4V7.8c0-.8.7-1.4,1.6-1.4h4.1c.9,0,1.6.6,1.6,1.4v15.6c0,.8-.7,1.4-1.6,1.4h-4.1Z"/>
    <path class="st0" d="M27.4,6.8c.6,0,1.1.4,1.1.9v15.6c0,.5-.5.9-1.1.9h-4.1c-.6,0-1.1-.4-1.1-.9V7.8c0-.5.5-.9,1.1-.9h4.1M27.4,5.8h-4.1c-1.2,0-2.1.9-2.1,1.9v15.6c0,1.1,1,1.9,2.1,1.9h4.1c1.2,0,2.1-.9,2.1-1.9V7.8c0-1.1-1-1.9-2.1-1.9h0Z"/>
  </g>
  <g>
    <path class="st1" d="M33.3,24.8c-.9,0-1.6-.6-1.6-1.4V3.1c0-.8.7-1.4,1.6-1.4h4.1c.9,0,1.6.6,1.6,1.4v20.3c0,.8-.7,1.4-1.6,1.4h-4.1Z"/>
    <path class="st0" d="M37.4,2.2c.6,0,1.1.4,1.1.9v20.3c0,.5-.5.9-1.1.9h-4.1c-.6,0-1.1-.4-1.1-.9V3.1c0-.5.5-.9,1.1-.9h4.1M37.4,1.2h-4.1c-1.2,0-2.1.9-2.1,1.9v20.3c0,1.1,1,1.9,2.1,1.9h4.1c1.2,0,2.1-.9,2.1-1.9V3.1c0-1.1-1-1.9-2.1-1.9h0Z"/>
  </g>
</svg>