<?xml version="1.0" encoding="UTF-8"?>
<svg id="Layer_1" xmlns="http://www.w3.org/2000/svg" xmlns:xlink="http://www.w3.org/1999/xlink" version="1.1" viewBox="0 0 43.3 31.2">
  <!-- Generator: Adobe Illustrator 29.3.1, SVG Export Plug-In . SVG Version: 2.1.0 Build 151)  -->
  <defs>
    <style>
      .st0 {
        fill: #231f20;
      }

      .st1 {
        fill: #fff200;
      }
    </style>
  </defs>
  <g>
    <path class="st1" d="M7.8,30c-3.7,0-6.7-3-6.7-6.7V7.9C1.1,4.3,4.1,1.3,7.8,1.3h27.7c1.8,0,3.5.7,4.7,2s2,2.9,2,4.7v15.4c0,1.8-.7,3.5-2,4.7-1.3,1.3-2.9,2-4.7,2H7.8ZM7.8,5.4c-1.4,0-2.6,1.2-2.6,2.6v15.4c0,.7.3,1.3.8,1.8.5.5,1.1.8,1.8.8h27.7c.7,0,1.3-.3,1.8-.8s.8-1.1.8-1.8V7.9c0-.7-.3-1.3-.8-1.8-.5-.5-1.1-.8-1.8-.8H7.8Z"/>
    <path class="st0" d="M35.5,1.8c1.6,0,3.2.6,4.4,1.8,1.2,1.2,1.8,2.7,1.8,4.4v15.4c0,1.6-.6,3.2-1.8,4.4-1.2,1.2-2.7,1.8-4.4,1.8H7.8c-3.4,0-6.2-2.8-6.2-6.2V7.9C1.6,4.5,4.4,1.8,7.8,1.8h27.7M7.8,26.4h27.7c.8,0,1.6-.3,2.2-.9.6-.6.9-1.4.9-2.2V7.9c0-.8-.3-1.6-.9-2.2-.6-.6-1.4-.9-2.2-.9H7.8c-1.7,0-3.1,1.4-3.1,3.1v15.4c0,.8.3,1.6.9,2.2.6.6,1.4.9,2.2.9M35.5.8H7.8C3.9.8.6,4,.6,7.9v15.4c0,3.9,3.2,7.2,7.2,7.2h27.7c1.9,0,3.7-.7,5.1-2.1,1.4-1.4,2.1-3.2,2.1-5.1V7.9c0-1.9-.7-3.7-2.1-5.1-1.4-1.4-3.2-2.1-5.1-2.1h0ZM7.8,25.4c-.5,0-1.1-.2-1.5-.6-.4-.4-.6-.9-.6-1.5V7.9c0-1.1.9-2.1,2.1-2.1h27.7c.5,0,1.1.2,1.5.6.4.4.6.9.6,1.5v15.4c0,.5-.2,1.1-.6,1.5-.4.4-.9.6-1.5.6H7.8Z"/>
  </g>
  <g>
    <path class="st1" d="M15.8,23.8c-2.7,0-5.2-1.3-6.7-3.5-1.5-2.2-1.9-5-.9-7.6,1-2.5,3.1-4.4,5.7-5.1.6-.2,1.3-.2,2-.2,2,0,3.9.7,5.4,2,.4.3.7.9.7,1.4,0,.5-.1,1.1-.5,1.5-.4.4-.9.7-1.4.7h-.1c-.5,0-1-.2-1.3-.5-.8-.7-1.7-1-2.7-1s-1.2.1-1.7.4c-1.5.7-2.4,2.1-2.4,3.8s1,3.1,2.4,3.8c.5.2,1.1.4,1.7.4,1,0,2-.4,2.7-1,.4-.3.8-.5,1.3-.5s1.1.3,1.5.7c.7.8.7,2.1-.2,2.9-1.5,1.3-3.4,2-5.4,2h0Z"/>
    <path class="st0" d="M15.8,7.9c1.9,0,3.7.7,5.1,1.9.3.3.5.6.5,1.1,0,.4-.1.8-.4,1.1-.3.3-.7.5-1.1.5,0,0,0,0-.1,0-.4,0-.7-.1-1-.4-.9-.8-2-1.2-3.1-1.2-.6,0-1.3.1-1.9.4-1.7.7-2.7,2.4-2.7,4.2s1.1,3.5,2.7,4.2c.6.3,1.3.4,1.9.4,1.1,0,2.2-.4,3.1-1.2.3-.3.7-.4,1-.4s.9.2,1.2.5c.6.6.5,1.6-.1,2.2-1.4,1.2-3.2,1.9-5.1,1.9h0s0,0,0,0c-2.5,0-4.9-1.2-6.3-3.3-1.4-2.1-1.8-4.7-.9-7.1.9-2.4,2.9-4.1,5.3-4.8.6-.2,1.2-.2,1.9-.2M15.8,6.9c-.7,0-1.4,0-2.1.3-2.8.7-5,2.7-6,5.4-1,2.7-.6,5.7,1,8,1.6,2.3,4.3,3.7,7.2,3.7,2.1,0,4.2-.8,5.8-2.2,1-.9,1.2-2.5.2-3.6-.5-.6-1.2-.9-1.9-.9s-1.2.2-1.7.6c-.7.6-1.5.9-2.4.9s-1-.1-1.5-.3c-1.3-.6-2.1-1.9-2.1-3.3s.8-2.7,2.1-3.3c.5-.2,1-.3,1.5-.3.9,0,1.7.3,2.4.9.5.4,1.1.6,1.7.6s.1,0,.2,0c.7,0,1.3-.4,1.7-.9.4-.5.7-1.2.6-1.8,0-.7-.4-1.3-.9-1.7-1.6-1.4-3.6-2.2-5.7-2.2h0Z"/>
  </g>
  <g>
    <path class="st1" d="M29.6,23.8c-2.7,0-5.2-1.3-6.7-3.5-1.5-2.2-1.9-5-.9-7.6,1-2.5,3.1-4.4,5.7-5.1.6-.2,1.3-.2,2-.2,2,0,3.9.7,5.4,2,.4.3.7.9.7,1.4,0,.5-.1,1.1-.5,1.5-.4.4-.9.7-1.4.7h-.1c-.5,0-1-.2-1.3-.5-.8-.7-1.7-1-2.7-1s-1.2.1-1.7.4c-1.5.7-2.4,2.1-2.4,3.8s1,3.1,2.4,3.8c.5.2,1.1.4,1.7.4,1,0,2-.4,2.7-1,.4-.3.8-.5,1.3-.5s1.1.3,1.5.7c.7.8.7,2.1-.2,2.9-1.5,1.3-3.4,2-5.4,2h0Z"/>
    <path class="st0" d="M29.6,7.9c1.9,0,3.7.7,5.1,1.9.3.3.5.6.5,1.1,0,.4-.1.8-.4,1.1s-.7.5-1.1.5c0,0,0,0-.1,0-.4,0-.7-.1-1-.4-.9-.8-2-1.2-3.1-1.2-.6,0-1.3.1-1.9.4-1.7.7-2.7,2.4-2.7,4.2s1.1,3.5,2.7,4.2c.6.3,1.3.4,1.9.4,1.1,0,2.2-.4,3.1-1.2.3-.3.7-.4,1-.4s.9.2,1.2.5c.6.6.5,1.6-.1,2.2-1.4,1.2-3.2,1.9-5.1,1.9h0s0,0,0,0c-2.5,0-4.9-1.2-6.3-3.3-1.4-2.1-1.8-4.7-.9-7.1.9-2.4,2.9-4.1,5.3-4.8.6-.2,1.2-.2,1.9-.2M29.6,6.9c-.7,0-1.4,0-2.1.3-2.8.7-5,2.7-6,5.4-1,2.7-.6,5.7,1,8,1.6,2.3,4.3,3.7,7.2,3.7,2.1,0,4.2-.8,5.8-2.2,1-.9,1.2-2.5.2-3.6-.5-.6-1.2-.9-1.9-.9s-1.2.2-1.7.6c-.7.6-1.5.9-2.4.9s-1-.1-1.5-.3c-1.3-.6-2.1-1.9-2.1-3.3s.8-2.7,2.1-3.3c.5-.2,1-.3,1.5-.3.9,0,1.7.3,2.4.9.5.4,1.1.6,1.7.6s.1,0,.2,0c.7,0,1.3-.4,1.7-.9.4-.5.7-1.2.6-1.8,0-.7-.4-1.3-.9-1.7-1.6-1.4-3.6-2.2-5.7-2.2h0Z"/>
  </g>
</svg>